<svg width="19" height="16" viewBox="0 0 19 16" fill="none" xmlns="http://www.w3.org/2000/svg">
<rect width="19" height="16" fill="#1E1E1E"/>
<g clip-path="url(#clip0_0_1)">
<rect width="1920" height="5875" transform="translate(-686 -5271)" fill="#FEFCFB"/>
<rect x="-686" y="-84" width="1920" height="688" fill="#F7F8FC"/>
<path d="M859 -278C859 -286.837 851.837 -294 843 -294H-295C-303.837 -294 -311 -286.837 -311 -278V106C-311 114.837 -303.837 122 -295 122H843C851.837 122 859 114.837 859 106V-278Z" fill="#FA7436"/>
<mask id="mask0_0_1" style="mask-type:alpha" maskUnits="userSpaceOnUse" x="-308" y="-239" width="480" height="361">
<rect x="171.5" y="-238.5" width="360" height="479" transform="rotate(90 171.5 -238.5)" fill="url(#paint0_linear_0_1)" stroke="#6246E5"/>
</mask>
<g mask="url(#mask0_0_1)">
<path d="M-153.958 232.885C-238.861 232.885 -307.69 163.959 -307.69 78.9341C-307.69 -6.09119 -238.861 -75.0166 -153.958 -75.0166C-69.0544 -75.0166 -0.225345 -6.09118 -0.225349 78.9341C-0.225352 163.959 -69.0544 232.885 -153.958 232.885Z" stroke="#E5E5E5"/>
<path d="M-138.202 236.206C-229.517 236.206 -303.544 162.076 -303.544 70.6298C-303.544 -20.816 -229.517 -94.9463 -138.202 -94.9463C-46.8876 -94.9463 27.1389 -20.816 27.1389 70.6298C27.1389 162.076 -46.8876 236.206 -138.202 236.206Z" stroke="#E5E5E5"/>
<path d="M-122.862 239.527C-220.36 239.527 -299.398 160.378 -299.398 62.7413C-299.398 -34.8957 -220.36 -114.045 -122.862 -114.045C-25.365 -114.045 53.6733 -34.8957 53.6733 62.7413C53.6733 160.378 -25.365 239.527 -122.862 239.527Z" stroke="#E5E5E5"/>
<path d="M-105.449 243.68C-212.563 243.68 -299.398 156.723 -299.398 49.4556C-299.398 -57.8121 -212.563 -144.769 -105.449 -144.769C1.66542 -144.769 88.5 -57.8121 88.5 49.4556C88.5 156.723 1.6654 243.68 -105.449 243.68Z" stroke="#E5E5E5"/>
</g>
<rect x="-22.0002" y="-26" width="674" height="68" rx="10" fill="white"/>
<path d="M3.55566 5.33301L8.289 8.88301C8.64455 9.14967 9.13344 9.14967 9.489 8.88301L14.2223 5.33301" stroke="#999999" stroke-linecap="round"/>
<rect x="0.5" y="0.5" width="17.6667" height="15" rx="4.5" stroke="#999999"/>
</g>
<defs>
<linearGradient id="paint0_linear_0_1" x1="428.035" y1="-225.533" x2="179.704" y2="245.066" gradientUnits="userSpaceOnUse">
<stop stop-color="#747DEF"/>
<stop offset="1" stop-color="#5E3BE1"/>
</linearGradient>
<clipPath id="clip0_0_1">
<rect width="1920" height="5875" fill="white" transform="translate(-686 -5271)"/>
</clipPath>
</defs>
</svg>
